<svg xmlns="http://www.w3.org/2000/svg" xmlns:xlink="http://www.w3.org/1999/xlink" width="135" height="26" viewBox="0 0 135 26"><defs><style>.a,.c,.d{fill:#7d40e7;}.a{stroke:#707070;}.b{clip-path:url(#a);}.c{font-size:17px;font-family:Helvetica-BoldOblique, Helvetica;font-weight:700;font-style:oblique;letter-spacing:0.033em;}</style><clipPath id="a"><rect class="a" width="135" height="26" transform="translate(30 19)"/></clipPath></defs><g class="b" transform="translate(-30 -19)"><g transform="translate(30.828 20.558)"><g transform="translate(-33.133 -36.275)"><g transform="translate(33.133 36.275)"><text class="c" transform="translate(39.328 17.913)"><tspan x="0" y="0">FASTFEET</tspan></text><path class="d" d="M32.952,15.415H10.581a.666.666,0,0,0,0,1.332H32.952a.666.666,0,0,0,0-1.332Z"/><path class="d" d="M34.639,11.623H13.954a.641.641,0,0,0,0,1.281H34.639a.641.641,0,0,0,0-1.281Z"/><path class="d" d="M30.555,7.869H8.184a.666.666,0,0,0,0,1.331H30.555a.666.666,0,0,0,0-1.331Z"/><path class="d" d="M9.781,22.739a5.866,5.866,0,0,1-5.859-5.859,3.062,3.062,0,0,1,.043-.5,5.86,5.86,0,0,1,1.91-11.4c.186,0,.373.008.558.026A5.733,5.733,0,0,1,12.178.145a5.877,5.877,0,0,1,5.74,4.679.755.755,0,1,1-1.48.3,4.36,4.36,0,0,0-4.261-3.471,4.243,4.243,0,0,0-4.3,4.272.755.755,0,0,1-1.035.7l-.149-.059A4.351,4.351,0,0,0,5.03,15.111a.754.754,0,0,1,.549,1.037l-.064.15c-.008.045-.017.089-.026.133a2.345,2.345,0,0,0-.059.448,4.351,4.351,0,0,0,8.375,1.653.755.755,0,1,1,1.4.574A5.837,5.837,0,0,1,9.781,22.739Z"/></g></g></g></g></svg>